<svg xmlns="http://www.w3.org/2000/svg" viewBox="0 0 100 100">
  <defs></defs>
  <g transform="matrix(1.378308, 0, 0, 1.252069, -577.591805, 1.747143)" style="">
    <path d="M 475.366 74.906 L 437.617 75.715 L 437.088 39.143 L 427.047 32.128 C 426.749 31.933 426.635 31.506 426.788 31.154 L 435.829 10.318 C 435.94 10.06 436.112 9.843 436.325 9.69 L 447.459 1.663 C 448.375 1.002 449.535 0.951 450.486 1.544 C 454.962 4.336 459.058 4.372 462.785 1.739 C 463.759 1.05 464.995 1.075 465.96 1.779 L 476.809 9.69 C 477.019 9.843 477.189 10.059 477.299 10.314 L 486.342 31.154 C 486.495 31.506 486.381 31.933 486.082 32.128 L 476.439 39.317 L 475.366 74.906 Z" opacity="1" data-original="#fe9738" style="fill: rgb(254, 134, 10); paint-order: fill;"></path>
    <path fill="#fe860a" d="M 449.017 1.131 C 449.521 1.122 450.029 1.259 450.487 1.544 C 454.962 4.336 459.058 4.372 462.784 1.739 C 463.187 1.454 463.634 1.291 464.09 1.248 L 464.107 1.467 C 463.97 6.091 460.646 9.791 456.565 9.791 C 454.509 9.791 452.644 8.851 451.283 7.327 C 449.923 5.804 449.065 3.697 449.02 1.36 L 449.017 1.131 Z" opacity="1" data-original="#fe860a" class="" style="paint-order: fill;"></path>
    <path d="M 465.96 1.779 L 467.568 2.951 C 466.807 9.11 462.162 13.863 456.565 13.863 C 450.988 13.863 446.359 9.147 445.571 3.024 L 447.459 1.663 C 447.934 1.321 448.474 1.141 449.017 1.131 L 449.02 1.36 C 449.065 3.697 449.923 5.804 451.283 7.327 C 452.644 8.851 454.509 9.791 456.565 9.791 C 460.646 9.791 463.97 6.091 464.107 1.467 L 464.09 1.248 C 464.734 1.187 465.393 1.366 465.96 1.779 L 465.96 1.779 Z" opacity="1" data-original="#6cf5c2" style="fill: rgb(65, 184, 131); stroke: rgb(0, 0, 0); stroke-width: 1.9389px; paint-order: fill;"></path>
    <path d="M 487.229 30.652 L 478.187 9.812 C 477.996 9.372 477.704 9 477.342 8.736 L 466.493 0.825 C 465.208 -0.112 463.548 -0.131 462.264 0.777 C 458.812 3.216 455.115 3.142 450.961 0.551 C 449.699 -0.236 448.155 -0.177 446.93 0.706 L 445.059 2.055 L 445.052 2.06 L 435.796 8.733 C 435.43 8.997 435.134 9.372 434.941 9.815 L 425.9 30.652 C 425.515 31.539 425.803 32.619 426.556 33.11 L 436.424 39.552 L 436.424 74.783 C 436.424 75.781 437.135 76.592 438.008 76.592 L 475.122 76.592 C 475.995 76.592 476.705 75.781 476.705 74.783 L 476.705 62.705 C 476.705 61.834 474.725 62.301 474.725 62.705 L 474.725 74.33 L 438.405 74.33 L 438.405 25.454 C 438.405 24.583 437.58 24.039 436.919 24.474 C 436.613 24.676 436.424 25.05 436.424 25.454 L 436.424 36.946 L 427.818 31.328 L 436.716 10.82 C 436.747 10.749 436.794 10.689 436.853 10.646 L 444.899 4.846 L 446.664 3.574 L 447.987 2.62 C 448.028 2.59 448.07 2.562 448.113 2.536 C 448.373 4.657 449.231 6.614 450.59 8.136 C 452.196 9.932 454.317 10.922 456.565 10.922 C 458.794 10.922 460.903 9.946 462.504 8.175 C 463.889 6.643 464.764 4.658 465.022 2.506 C 465.162 2.564 465.299 2.639 465.428 2.733 C 465.428 2.733 466.128 3.244 466.478 3.499 C 467.067 3.928 468.244 4.786 468.244 4.786 L 476.276 10.643 C 476.334 10.686 476.381 10.746 476.412 10.816 L 485.312 31.327 L 476.705 36.946 L 476.705 25.454 C 476.705 24.583 475.88 24.039 475.22 24.474 C 474.913 24.676 474.725 25.05 474.725 25.454 L 474.688 62.707 C 474.688 63.578 476.705 63.111 476.705 62.707 L 476.705 39.552 L 486.574 33.11 C 487.326 32.619 487.614 31.539 487.229 30.652 Z M 456.565 8.659 C 454.839 8.659 453.209 7.899 451.976 6.52 C 451.016 5.444 450.381 4.087 450.13 2.609 C 454.709 5.421 459.015 5.537 462.936 2.953 C 462.24 6.251 459.659 8.659 456.565 8.659 Z" fill="#000000" opacity="1" data-original="#000000" class="" style="paint-order: fill;"></path>
  </g>
  <path d="M 37.847 29.403 L 52.846 56.053 L 67.847 29.403 L 61.958 29.403 L 52.846 45.507 L 43.736 29.403 L 37.847 29.403 Z" fill="#41B883" style="stroke-linecap: round; stroke-linejoin: round; stroke: rgb(0, 0, 0); stroke-width: 1.2px;"></path>

  <path d="M 43.736 29.403 L 52.846 45.507 L 61.958 29.403 L 56.597 29.403 L 52.915 36.081 L 49.097 29.403 L 43.736 29.403 Z" fill="#35495E" style="stroke-linecap: round; stroke-linejoin: round; stroke: rgb(0, 0, 0); stroke-width: 1.2px;"></path>
  <g transform="matrix(-0.009991, -0.006995, -0.006561, 0.009369, 2995.09233, 935.583815)" style="transform-origin: -2937.31px -869.744px;">
    <path d="M -2159.8 -117.77 C -2339.7 148.943 -3005.6 159.781 -3511.8 -346.43 C -3839 -673.57 -3839 -1204.8 -3511.8 -1531.9 C -3184.7 -1859.1 -2568.3 -1926.3 -2326.3 -1531.9 C -2091.5 -1149.2 -2447.8 -889.13 -2439.9 -692.47 C -2430 -447.84 -1980 -384.48 -2159.8 -117.77 L -2159.8 -117.77 Z" opacity="1" data-original="#fe9635" style="fill: rgb(248, 158, 0); stroke: rgb(0, 0, 0); stroke-linecap: round; stroke-width: 76.1609px;"></path>
    <circle cx="-2797.8" cy="-1405.6" r="166.176" opacity="1" data-original="#1a76d2" fill="#1a76d2" style="stroke: rgb(0, 0, 0); stroke-linecap: round; stroke-width: 76.1609px;"></circle>
    <circle cx="-3333" cy="-1139.7" r="145.404" opacity="1" data-original="#cd0808" style="fill: rgb(219, 31, 22); stroke: rgb(0, 0, 0); stroke-linecap: round; stroke-width: 76.1609px;"></circle>
    <circle cx="-3208.3" cy="-599.66" r="124.632" opacity="1" data-original="#ffeb3b" fill="#ffeb3b" style="stroke: rgb(0, 0, 0); stroke-linecap: round; stroke-width: 76.1609px;"></circle>
    <circle cx="-2735.4" cy="-264" r="103.86" opacity="1" data-original="#4caf50" fill="#4caf50" style="stroke: rgb(0, 0, 0); stroke-linecap: round; stroke-width: 76.1609px;"></circle>
  </g>
  <g transform="matrix(-0.030832, 0, 0, 0.035526, -207.055042, -198.309512)" style="transform-origin: 255.999px 256.069px;">
    <path d="m183.799 392.264-63.23-63.23s-57.809-14.542-94.281 50.299c-36.532 64.781 11.919 125.152 11.919 125.152 15.674-29.143 24.613-26.163 59.596-34.328 34.982-8.165 85.997-34.984 85.996-77.893z" style="stroke: rgb(0, 0, 0); stroke-linecap: round; stroke-linejoin: round; stroke-width: 27.1256px;" fill="#7c5748" data-original="#7c5748"></path>
    <path d="M47.682 351.501c-7.509 7.032-14.781 16.09-21.395 27.831-36.532 64.781 11.919 125.152 11.919 125.152 15.674-29.143 24.613-26.163 59.596-34.328a151.177 151.177 0 0 0 18.356-5.602c-1.61-5.781-1.431-13.111 3.158-21.991 0 0-25.268-7.39-42.432-24.554-4.113-4.113-6.437-8.582-8.045-13.408-5.126-15.377-2.147-34.089-21.157-53.1z" style="stroke: rgb(0, 0, 0); stroke-linecap: round; stroke-linejoin: round; stroke-width: 27.1256px;" fill="#db1f16" data-original="#db1f16"></path>
    <path d="M222.211 341.504c24.897-3.636 60.833-25.915 118.738-83.819C441.325 157.309 519.866 37.741 494.56 12.437c-25.305-25.305-144.871 53.235-245.248 153.611-57.903 57.903-80.184 93.839-83.82 118.738" style="stroke: rgb(0, 0, 0); stroke-linecap: round; stroke-linejoin: round; stroke-width: 27.1256px;" fill="#f89e00" data-original="#f89e00"></path>
    <path d="m226.458 345.748-65.206-65.206c-5.168-5.168-13.547-5.168-18.714 0l-25.873 25.873c-5.168 5.168-5.168 13.547 0 18.714l65.206 65.206c5.168 5.168 13.547 5.168 18.714 0l25.873-25.873c5.168-5.168 5.168-13.546 0-18.714z" style="stroke: rgb(0, 0, 0); stroke-linecap: round; stroke-linejoin: round; stroke-width: 27.1256px;" fill="#c0c9d2" data-original="#c0c9d2"></path>
  </g>
</svg>
